# xmcd CD database file
# Generated: Sat Nov 8 19:53:51 2003 by KSCD
# 
# Track frame offsets:
#       150
#       18699
#       30379
#       49690
#       65708
#       84661
#       98759
#       113229
#       124435
#       138047
#       150560
#       166143
#       182915
#       203813
#       218879
#       243970
#       258103
#       275722
#       289434
#       330459
#
# Disc length: 4665 seconds
#
# Revision: 2
# Processed by: cddbd v1.4PL0 Copyright (c) Steve Scherf et al.
# Submitted via: Kscd 1.3.3
#
DISCID=24123714
DTITLE=Norah Jones - Special Norah Jones
DYEAR=1900
DGENRE=
TTITLE0=Shoot The Moon
TTITLE1=Turn Me On
TTITLE2=I've Got To See You Again
TTITLE3=Live: I've Got To See You Again
TTITLE4=More Than This
TTITLE5=Come Away With Me
TTITLE6=Don't Know Why
TTITLE7=Seven Years
TTITLE8=Feelin' In The Same Way
TTITLE9=The Long Day Is Over
TTITLE10=Something Is Calling You
TTITLE11=Cold Cold Heart
TTITLE12=Day Is Done
TTITLE13=I'll Be Your Baby Tonight
TTITLE14=In A Whisper
TTITLE15=Lonestar
TTITLE16=Peace
TTITLE17=I Ain't Gonna Ask You
TTITLE18=Tennesee Waltz
TTITLE19=Nightingale
EXTD=
EXTT0=
EXTT1=
EXTT2=
EXTT3=
EXTT4=
EXTT5=
EXTT6=
EXTT7=
EXTT8=
EXTT9=
EXTT10=
EXTT11=
EXTT12=
EXTT13=
EXTT14=
EXTT15=
EXTT16=
EXTT17=
EXTT18=
EXTT19=
PLAYORDER=
